<?xml version="1.0" standalone="no"?>
<!DOCTYPE svg PUBLIC "-//W3C//DTD SVG 20010904//EN"
 "http://www.w3.org/TR/2001/REC-SVG-20010904/DTD/svg10.dtd">
<svg version="1.0" xmlns="http://www.w3.org/2000/svg"
 width="512.000000pt" height="512.000000pt" viewBox="0 0 512.000000 512.000000"
 preserveAspectRatio="xMidYMid meet">
<metadata>
Created by potrace 1.11, written by Peter Selinger 2001-2013
</metadata>
<g transform="translate(0.000000,512.000000) scale(0.100000,-0.100000)"
fill="#000000" stroke="none">
<path d="M2379 5116 c-2 -2 -35 -6 -74 -10 -662 -58 -1309 -408 -1736 -939
-82 -101 -219 -299 -219 -316 0 -5 -4 -11 -8 -13 -11 -4 -123 -236 -162 -333
-86 -216 -142 -448 -167 -685 -15 -137 -7 -535 12 -615 2 -11 6 -36 9 -55 11
-91 49 -247 92 -382 14 -43 22 -83 18 -89 -4 -7 -3 -9 2 -6 5 3 20 -22 33 -56
13 -34 41 -97 62 -139 21 -43 34 -78 31 -78 -4 0 -2 -4 3 -8 6 -4 23 -32 39
-62 50 -94 169 -270 253 -375 118 -148 216 -244 423 -419 34 -29 192 -135 265
-178 117 -69 174 -97 350 -173 186 -81 463 -148 705 -172 97 -10 415 -10 505
0 679 73 1269 387 1715 912 85 101 217 294 276 405 16 30 33 58 37 61 5 3 9
10 8 15 0 5 15 41 34 80 56 120 146 377 161 463 3 12 11 51 19 85 36 155 49
297 50 521 0 193 -3 251 -16 330 -4 28 -10 66 -13 85 -15 111 -61 296 -105
424 -12 32 -18 62 -15 67 3 5 1 9 -4 9 -5 0 -25 37 -43 83 -163 405 -473 797
-854 1078 -33 24 -61 47 -63 52 -2 4 -9 7 -15 7 -7 0 -38 18 -70 41 -62 42
-294 163 -387 199 -153 61 -375 126 -494 144 -21 4 -41 8 -45 10 -3 2 -35 7
-71 11 -36 4 -74 9 -85 12 -24 5 -450 14 -456 9z"/>
</g>
</svg>
